<?xml version="1.0" encoding="utf-8"?>
<svg xmlns="http://www.w3.org/2000/svg" fill="none" height="26" viewBox="0 0 26 26" width="26">
<path d="M17.484 3.80035C19.471 3.80035 20.9061 4.6716 21.6788 6.3052C22.5619 8.26551 22.0099 10.6615 20.4645 12.404C18.4775 14.691 12.9581 20.463 12.9581 20.463C12.9581 20.463 7.43868 14.691 5.45169 12.404C3.90625 10.5526 3.35431 8.15661 4.34781 6.3052C5.01014 4.6716 6.55557 3.90925 8.54256 3.90925C10.5296 3.90925 12.2958 5.43394 12.9581 6.84973C13.51 5.32504 15.2763 3.80035 17.484 3.80035ZM17.484 2.16675C15.6074 2.16675 14.062 2.92909 12.9581 4.01816C11.8542 2.92909 10.3088 2.16675 8.54256 2.16675C5.89324 2.16675 3.79587 3.36472 2.80237 5.54285C1.5881 8.0477 2.14004 10.9882 4.23742 13.3841C6.22441 15.7801 11.6334 21.3343 11.8542 21.5521L13.0685 22.7501L14.2828 21.4432C14.5035 21.2254 19.8022 15.5623 21.7892 13.2752C23.7762 10.9882 24.4385 7.82989 23.2242 5.43394C22.1203 3.36472 20.1333 2.16675 17.484 2.16675Z" fill="#2D3642"/>
</svg>