<?xml version="1.0" encoding="utf-8"?>
<svg xmlns="http://www.w3.org/2000/svg" fill="none" height="26" viewBox="0 0 26 26" width="26">
<path d="M12.9473 13.5132C10.0154 13.5132 7.71167 11.1526 7.71167 8.38158C7.71167 5.50789 10.1201 3.25 12.9473 3.25C15.7746 3.25 18.183 5.61053 18.183 8.38158C18.183 11.2553 15.7746 13.5132 12.9473 13.5132ZM12.9473 4.78947C10.8531 4.78947 9.28237 6.43158 9.28237 8.38158C9.28237 10.3316 10.9578 11.9737 12.9473 11.9737C14.9369 11.9737 16.6123 10.4342 16.6123 8.38158C16.6123 6.43158 14.9369 4.78947 12.9473 4.78947ZM6.14098 22.5447C5.93155 21.5184 5.72213 20.5947 5.82684 19.8763C6.24569 16.7974 10.5389 15.9763 12.8426 15.9763C12.8426 15.9763 12.8426 15.9763 12.9473 15.9763C15.251 15.9763 19.6489 16.7974 20.0678 19.8763C20.1725 20.5947 19.9631 21.6211 19.7537 22.6474H21.3244C21.5338 21.6211 21.7432 20.5947 21.6385 19.7737C21.1149 15.5658 15.8793 14.5395 13.052 14.5395H12.9473C10.1201 14.5395 4.88442 15.6684 4.36086 19.8763C4.25615 20.6974 4.46557 21.7237 4.675 22.75H6.14098V22.5447Z" fill="#2D3642"/>
</svg>