<?xml version="1.0" encoding="utf-8"?>
<svg xmlns="http://www.w3.org/2000/svg" fill="none" height="26" viewBox="0 0 26 26" width="26">
<path d="M8.54569 12.1361H10.5328L6.55858 17.134L2.16602 12.1361H4.25771L6.55858 14.6882L8.54569 12.1361ZM14.9254 8.73321L12.1016 14.0502H21.0959V12.4551H14.7162L16.7033 8.73321H14.9254ZM15.9712 2.2465C13.6704 1.92748 11.4741 2.56552 9.48696 4.16061C7.29067 5.96838 5.93107 8.83955 5.61732 12.1361H7.18609C7.49984 9.37125 8.65028 6.92544 10.5328 5.33035C12.1016 4.05427 13.9841 3.52258 15.762 3.73526C19.9454 4.37329 22.8738 8.94589 22.2463 14.0502C21.9326 16.815 20.6775 19.1545 18.6904 20.7496C17.3308 21.813 15.762 22.3447 14.1933 22.2383V23.8334C14.2979 23.8334 14.4024 23.8334 14.507 23.8334C16.285 23.8334 18.0629 23.1954 19.6317 22.0256C21.9326 20.2179 23.3967 17.453 23.7105 14.2629C24.5472 8.41419 20.9913 2.99088 15.9712 2.2465Z" fill="#2D3642"/>
</svg>