<?xml version="1.0" encoding="utf-8"?>
<svg xmlns="http://www.w3.org/2000/svg" fill="none" height="25" viewBox="0 0 25 25" width="25">
<path d="M6 18.6H2.5V2.5H18.6V6.1" stroke="black" stroke-width="1.5"/>
<path d="M22.2 6.1001H6V22.3001H22.2V6.1001Z" stroke="black" stroke-width="1.5"/>
<path d="M11.8984 10.8999C11.8984 11.9999 12.7984 12.8999 13.8984 12.8999C14.9984 12.8999 15.8984 11.9999 15.8984 10.8999C15.8984 9.7999 14.9984 8.8999 13.8984 8.8999C12.7984 8.8999 11.8984 9.6999 11.8984 10.8999Z" stroke="black" stroke-linejoin="bevel" stroke-width="1.5"/>
<path d="M10.5984 19.0998C10.4984 18.5998 10.3984 18.0998 10.4984 17.6998C10.6984 15.7998 12.8984 15.3998 13.9984 15.3998C15.0984 15.3998 17.2984 15.8998 17.4984 17.6998C17.4984 18.0998 17.4984 18.5998 17.3984 19.1998H17.9984C18.0984 18.6998 18.1984 18.0998 18.0984 17.6998C17.8984 15.3998 15.2984 14.7998 13.9984 14.7998C12.6984 14.7998 10.0984 15.3998 9.89844 17.6998C9.89844 18.0998 9.89844 18.6998 9.99844 19.1998H10.5984V19.0998Z" fill="black" stroke="black"/>
</svg>