<svg width="24" height="25" viewBox="0 0 24 25" fill="none" xmlns="http://www.w3.org/2000/svg">
<g clip-path="url(#clip0_864_149116)">
<path d="M12.3984 8.07935V18.7793" stroke="white" stroke-width="1.7"/>
<path d="M17.8016 13.3792H7.10156" stroke="white" stroke-width="1.7"/>
<path d="M12.3984 3.87915C17.6984 3.87915 21.9984 8.17915 21.9984 13.4792C21.9984 18.7792 17.6984 22.9792 12.3984 22.9792" stroke="white" stroke-width="1.7"/>
<path d="M7.5 5.17925C8.4 4.67925 9.3 4.27925 10.4 3.97925" stroke="white" stroke-width="1.7"/>
<path d="M3.39844 10.0793C3.99844 8.5793 4.89844 7.2793 6.09844 6.2793" stroke="white" stroke-width="1.7"/>
<path d="M4.10078 18.1793C3.30078 16.7793 2.80078 15.1793 2.80078 13.3793C2.80078 12.6793 2.90078 11.9793 3.00078 11.2793" stroke="white" stroke-width="1.7"/>
<path d="M11.0984 22.8793C8.59844 22.4793 6.39844 21.1793 4.89844 19.2793" stroke="white" stroke-width="1.7"/>
</g>
<defs>
<clipPath id="clip0_864_149116">
<rect width="20.9" height="20.9" fill="white" transform="translate(2 2.97925)"/>
</clipPath>
</defs>
</svg>
