<svg width="24" height="25" viewBox="0 0 24 25" fill="none" xmlns="http://www.w3.org/2000/svg">
<path d="M13.0244 12.4792C13.0244 13.0675 12.5366 13.5577 11.9512 13.5577C11.3659 13.5577 10.878 13.0675 10.878 12.4792C10.878 11.891 11.3659 11.4008 11.9512 11.4008C12.6341 11.4989 13.0244 11.9891 13.0244 12.4792ZM15.561 15.3224C16.439 13.4596 16.439 11.4989 15.561 9.63611H13.9024C15.0732 11.4989 15.0732 13.4596 13.9024 15.3224H15.561ZM10.0976 9.63611H8.43902C7.56098 11.4989 7.56098 13.4596 8.43902 15.3224H10.0976C8.92683 13.5577 8.92683 11.5969 10.0976 9.63611ZM18.3902 10.4204C18.1951 9.34199 17.8049 8.3616 17.3171 7.38121H15.561C16.2439 8.45964 16.7317 9.53807 17.0244 10.7145C17.5122 13.0675 16.9268 15.5185 15.4634 17.5773H17.2195C18.4878 15.4204 18.9756 12.8714 18.3902 10.4204ZM7.07317 10.7145C7.26829 9.53807 7.85366 8.45964 8.53659 7.38121H6.78049C6.19512 8.3616 5.90244 9.34199 5.60976 10.4204C5.12195 12.8714 5.5122 15.4204 6.87805 17.5773H8.63415C7.17073 15.5185 6.58537 13.0675 7.07317 10.7145ZM22 12.4792C22 17.9694 17.5122 22.4792 12.0488 22.4792C6.58537 22.4792 2 18.0675 2 12.4792C2 6.89101 6.4878 2.47925 11.9512 2.47925C17.4146 2.47925 22 6.98905 22 12.4792ZM20.5366 12.4792C20.5366 7.77337 16.7317 3.94984 12.0488 3.94984C7.36585 3.94984 3.56098 7.77337 3.56098 12.4792C3.56098 17.1851 7.26829 21.1067 11.9512 21.1067C16.6341 21.1067 20.5366 17.1851 20.5366 12.4792Z" fill="white"/>
</svg>
